<?xml version="1.0" encoding="UTF-8" standalone="no"?>
<svg
   xmlns:dc="http://purl.org/dc/elements/1.1/"
   xmlns:cc="http://creativecommons.org/ns#"
   xmlns:rdf="http://www.w3.org/1999/02/22-rdf-syntax-ns#"
   xmlns:svg="http://www.w3.org/2000/svg"
   xmlns="http://www.w3.org/2000/svg"
   xmlns:sodipodi="http://sodipodi.sourceforge.net/DTD/sodipodi-0.dtd"
   xmlns:inkscape="http://www.inkscape.org/namespaces/inkscape"
   height="32px"
   version="1.1"
   viewBox="0 0 32 32"
   width="32px"
   id="svg2"
   inkscape:version="0.91 r13725"
   sodipodi:docname="ext_icon.svg">
  <metadata
     id="metadata15">
    <rdf:RDF>
      <cc:Work
         rdf:about="">
        <dc:format>image/svg+xml</dc:format>
        <dc:type
           rdf:resource="http://purl.org/dc/dcmitype/StillImage" />
        <dc:title></dc:title>
      </cc:Work>
    </rdf:RDF>
  </metadata>
  <sodipodi:namedview
     pagecolor="#ffffff"
     bordercolor="#666666"
     borderopacity="1"
     objecttolerance="10"
     gridtolerance="10"
     guidetolerance="10"
     inkscape:pageopacity="0"
     inkscape:pageshadow="2"
     inkscape:window-width="1186"
     inkscape:window-height="735"
     id="namedview13"
     showgrid="false"
     inkscape:zoom="7.375"
     inkscape:cx="16"
     inkscape:cy="16"
     inkscape:window-x="526"
     inkscape:window-y="145"
     inkscape:window-maximized="0"
     inkscape:current-layer="svg2" />
  <desc
     id="desc6" />
  <defs
     id="defs8" />
  <g
     fill="none"
     fill-rule="evenodd"
     id="Page-1"
     stroke="none"
     stroke-width="1"
     style="fill:#ff8800;fill-opacity:1">
    <g
       fill="#929292"
       id="icon-45-note-list"
       style="fill:#ff8800;fill-opacity:1">
      <path
         d="M5,11 L5,25.9991358 C5,27.0983727 5.8927712,28 6.99406028,28 L21,28 L21,21.9981014 C21,20.8867064 21.8980806,20 23.0059191,20 L28,20 L28,11 L5,11 L5,11 Z M5,10 L5,7.00086422 C5,5.89581743 5.90162726,5 7.00086422,5 L25.9991358,5 C27.1041826,5 28,5.89339733 28,6.99188419 L28,10 L5,10 L5,10 Z M22,28 L22,22.0029293 C22,21.4490268 22.4509752,21 22.990778,21 L28,21 L22,28 L22,28 Z M13,18 L13,19 L20,19 L20,18 L13,18 L13,18 Z M8,17 L8,20 L11,20 L11,17 L8,17 L8,17 Z M9,18 L9,19 L10,19 L10,18 L9,18 L9,18 Z M13,14 L13,15 L25,15 L25,14 L13,14 L13,14 Z M8,13 L8,16 L11,16 L11,13 L8,13 L8,13 Z M9,14 L9,15 L10,15 L10,14 L9,14 L9,14 Z M13,22 L13,23 L19,23 L19,22 L13,22 L13,22 Z M8,21 L8,24 L11,24 L11,21 L8,21 L8,21 Z M9,22 L9,23 L10,23 L10,22 L9,22 L9,22 Z"
         id="note-list"
         style="fill:#ff8800;fill-opacity:1" />
    </g>
  </g>
</svg>
