<?xml version="1.0" encoding="UTF-8" standalone="no"?>
<svg
   xmlns:dc="http://purl.org/dc/elements/1.1/"
   xmlns:cc="http://creativecommons.org/ns#"
   xmlns:rdf="http://www.w3.org/1999/02/22-rdf-syntax-ns#"
   xmlns:svg="http://www.w3.org/2000/svg"
   xmlns="http://www.w3.org/2000/svg"
   xmlns:sodipodi="http://sodipodi.sourceforge.net/DTD/sodipodi-0.dtd"
   xmlns:inkscape="http://www.inkscape.org/namespaces/inkscape"
   viewBox="0 0 16 16"
   id="svg4186"
   version="1.1"
   inkscape:version="0.91 r13725"
   sodipodi:docname="actions-document-select.svg">
  <metadata
     id="metadata4196">
    <rdf:RDF>
      <cc:Work
         rdf:about="">
        <dc:format>image/svg+xml</dc:format>
        <dc:type
           rdf:resource="http://purl.org/dc/dcmitype/StillImage" />
      </cc:Work>
    </rdf:RDF>
  </metadata>
  <defs
     id="defs4194" />
  <sodipodi:namedview
     pagecolor="#ffffff"
     bordercolor="#666666"
     borderopacity="1"
     objecttolerance="10"
     gridtolerance="10"
     guidetolerance="10"
     inkscape:pageopacity="0"
     inkscape:pageshadow="2"
     inkscape:window-width="1360"
     inkscape:window-height="744"
     id="namedview4192"
     showgrid="false"
     inkscape:zoom="37.9375"
     inkscape:cx="2.9390445"
     inkscape:cy="8"
     inkscape:window-x="0"
     inkscape:window-y="24"
     inkscape:window-maximized="1"
     inkscape:current-layer="svg4186" />
  <title
     id="title4188">actions-document-select-v1</title>
  <path
     d="M8.363 15H1.5c-.276 0-.5-.224-.5-.5v-13c0-.276.224-.5.5-.5h13c.276 0 .5.224.5.5v4.612c.267.122.518.293.74.514l.7.7c.98.98.973 2.57 0 3.542L15 12.308V14.5c0 .276-.224.5-.5.5h-2.19l-.107.106c-.514.514-1.22.78-1.94.73l.7-.076c-.868.255-1.814.023-2.45-.613L8.364 15zm4.946-1H14v-.69l2.44-2.442c.973-.972.98-2.562 0-3.54l-.7-.702c-.485-.484-1.112-.73-1.74-.736V2H2v12h5.336l1.178 1.147c.635.636 1.58.868 2.45.613l-.702.076c.72.05 1.427-.216 1.94-.73L13.31 14zm-7.773-2H3v1h3.31l-.255-.25c-.224-.223-.397-.478-.518-.75zM3 10v1h2.322l.203-1H3zm0-2v1h3.274L7.5 8H3zm10-2H3v1h8.808L13 6zM3 3h10v2H3V3zm5.883 6.923c-.2-.2-.51-.193-.708.004l-.7.7c-.206.206-.2.515-.006.71l2.44 2.378c.135.135.32.175.49.126.14.01.28-.04.39-.148l4.237-4.238c.19-.19.196-.516 0-.713l-.702-.7c-.205-.205-.516-.197-.713 0l-3.274 3.275-1.455-1.392z"
     class="icon-color"
     id="path4190"
     style="fill:#dddddd;fill-opacity:1" />
</svg>
