<?xml version="1.0" encoding="UTF-8" standalone="no"?>
<svg
   xmlns:dc="http://purl.org/dc/elements/1.1/"
   xmlns:cc="http://creativecommons.org/ns#"
   xmlns:rdf="http://www.w3.org/1999/02/22-rdf-syntax-ns#"
   xmlns:svg="http://www.w3.org/2000/svg"
   xmlns="http://www.w3.org/2000/svg"
   xmlns:sodipodi="http://sodipodi.sourceforge.net/DTD/sodipodi-0.dtd"
   xmlns:inkscape="http://www.inkscape.org/namespaces/inkscape"
   viewBox="0 0 16 16"
   id="svg2"
   version="1.1"
   inkscape:version="0.91 r13725"
   sodipodi:docname="actions-document-open.svg">
  <metadata
     id="metadata14">
    <rdf:RDF>
      <cc:Work
         rdf:about="">
        <dc:format>image/svg+xml</dc:format>
        <dc:type
           rdf:resource="http://purl.org/dc/dcmitype/StillImage" />
      </cc:Work>
    </rdf:RDF>
  </metadata>
  <defs
     id="defs12" />
  <sodipodi:namedview
     pagecolor="#ffffff"
     bordercolor="#666666"
     borderopacity="1"
     objecttolerance="10"
     gridtolerance="10"
     guidetolerance="10"
     inkscape:pageopacity="0"
     inkscape:pageshadow="2"
     inkscape:window-width="1360"
     inkscape:window-height="744"
     id="namedview10"
     showgrid="false"
     inkscape:zoom="14.75"
     inkscape:cx="8"
     inkscape:cy="8"
     inkscape:window-x="0"
     inkscape:window-y="24"
     inkscape:window-maximized="1"
     inkscape:current-layer="svg2" />
  <g
     class="icon-color"
     id="g4"
     style="fill:#dddddd;fill-opacity:1">
    <path
       d="M13 5H3V3h10v2zm-1 1H3v1h8l1-1zm-6 6H3v1h2l1-1zm4-4H3v1h6l1-1zm-2 2H3v1h4l1-1zM14 14h-1l-1 1h2.5c.3 0 .5-.2.5-.5V12l-1 1v1z"
       id="path6"
       style="fill:#dddddd;fill-opacity:1" />
    <path
       d="M5 14H2V2h12v3h1V1.5c0-.3-.2-.5-.5-.5h-13c-.3 0-.5.2-.5.5v13c0 .3.2.5.5.5H5v-1zM14.2 7.2l1.6 1.6c.1.1.1.3 0 .4l-1.3 1.3-2-2 1.3-1.3c.1-.1.3-.1.4 0zm-7.1 6.7L12 9l2 2-4.9 4.9c-.1.1-.1.1-.2.1H7v-1.9c0-.1 0-.1.1-.2z"
       id="path8"
       style="fill:#dddddd;fill-opacity:1" />
  </g>
</svg>
