<?xml version="1.0" encoding="UTF-8" standalone="no"?>
<svg
   xmlns:dc="http://purl.org/dc/elements/1.1/"
   xmlns:cc="http://creativecommons.org/ns#"
   xmlns:rdf="http://www.w3.org/1999/02/22-rdf-syntax-ns#"
   xmlns:svg="http://www.w3.org/2000/svg"
   xmlns="http://www.w3.org/2000/svg"
   xmlns:sodipodi="http://sodipodi.sourceforge.net/DTD/sodipodi-0.dtd"
   xmlns:inkscape="http://www.inkscape.org/namespaces/inkscape"
   viewBox="0 0 16 16"
   id="svg2"
   version="1.1"
   inkscape:version="0.91 r13725"
   sodipodi:docname="actions-delete.svg">
  <metadata
     id="metadata16">
    <rdf:RDF>
      <cc:Work
         rdf:about="">
        <dc:format>image/svg+xml</dc:format>
        <dc:type
           rdf:resource="http://purl.org/dc/dcmitype/StillImage" />
      </cc:Work>
    </rdf:RDF>
  </metadata>
  <defs
     id="defs14" />
  <sodipodi:namedview
     pagecolor="#ffffff"
     bordercolor="#666666"
     borderopacity="1"
     objecttolerance="10"
     gridtolerance="10"
     guidetolerance="10"
     inkscape:pageopacity="0"
     inkscape:pageshadow="2"
     inkscape:window-width="1360"
     inkscape:window-height="744"
     id="namedview12"
     showgrid="false"
     inkscape:zoom="14.75"
     inkscape:cx="-0.06779661"
     inkscape:cy="8"
     inkscape:window-x="0"
     inkscape:window-y="24"
     inkscape:window-maximized="1"
     inkscape:current-layer="svg2" />
  <g
     class="icon-color"
     id="g4"
     style="fill:#dddddd;fill-opacity:1">
    <path
       d="M7 5H6v8h1M10 5H9v8h1"
       id="path6"
       style="fill:#dddddd;fill-opacity:1" />
    <path
       d="M13 3h-2v-.75C11 1.56 10.44 1 9.75 1h-3.5C5.56 1 5 1.56 5 2.25V3H3v10.75c0 .69.56 1.25 1.25 1.25h7.5c.69 0 1.25-.56 1.25-1.25V3zm-7-.75c0-.138.112-.25.25-.25h3.5c.138 0 .25.112.25.25V3H6v-.75zm6 11.5c0 .138-.112.25-.25.25h-7.5c-.138 0-.25-.112-.25-.25V4h8v9.75z"
       id="path8"
       style="fill:#dddddd;fill-opacity:1" />
    <path
       d="M13.5 4h-11c-.276 0-.5-.224-.5-.5s.224-.5.5-.5h11c.276 0 .5.224.5.5s-.224.5-.5.5z"
       id="path10"
       style="fill:#dddddd;fill-opacity:1" />
  </g>
</svg>
